<mxfile host="app.diagrams.net" modified="2020-08-09T15:11:30.444Z" agent="5.0 (iPhone; CPU iPhone OS 13_5_1 like Mac OS X) AppleWebKit/605.1.15 (KHTML, like Gecko) Version/13.1.1 Mobile/15E148 Safari/604.1" etag="9g9oaESXygLGWpxIVHPF" version="13.5.9" type="github">
  <diagram id="TX0tjDybmcg6ie2-7eEc" name="Page-1">
    <mxGraphModel dx="341" dy="434" grid="1" gridSize="10" guides="1" tooltips="1" connect="1" arrows="1" fold="1" page="1" pageScale="1" pageWidth="1169" pageHeight="827" math="0" shadow="0">
      <root>
        <mxCell id="0" />
        <mxCell id="1" parent="0" />
        <object label="" tooltip="Start" id="0SFrBd8lxfRg6BAOTdYN-1">
          <mxCell style="rounded=1;whiteSpace=wrap;html=1;" vertex="1" parent="1">
            <mxGeometry x="90" y="70" width="140" height="90" as="geometry" />
          </mxCell>
        </object>
        <mxCell id="0SFrBd8lxfRg6BAOTdYN-2" value="Text" style="text;html=1;resizable=0;autosize=1;align=center;verticalAlign=middle;points=[];fillColor=none;strokeColor=none;rounded=0;" vertex="1" parent="1">
          <mxGeometry x="130" y="110" width="40" height="20" as="geometry" />
        </mxCell>
      </root>
    </mxGraphModel>
  </diagram>
</mxfile>
